<svg width="138" height="82" fill="none" xmlns="http://www.w3.org/2000/svg"><path d="M41.26 80.829c22.138 0 40.083-17.832 40.083-39.829S63.397 1.171 41.26 1.171C19.124 1.171 1.179 19.003 1.179 41S19.124 80.829 41.26 80.829z" fill="#F50000"/><path d="M41.26 2.343C62.718 2.343 80.165 19.68 80.165 41c0 21.32-17.447 38.657-38.903 38.657S2.358 62.32 2.358 41c0-21.32 17.447-38.657 38.903-38.657zm0-2.343C18.474 0 0 18.356 0 41s18.473 41 41.26 41c22.789 0 41.262-18.356 41.262-41S64.049 0 41.26 0z" fill="#000"/><path d="M129.842 61.945H16.893l8.146-40.098H138l-8.158 40.098z" fill="#09192B"/><path d="M131.434 54.097H17.318l.2-1.008h114.128l-.212 1.008z" fill="#D40018"/><path d="M28.305 31.265l1.026-5.095h20.901l-1.06 5.095h-6.59L38.407 51.32h-7.722l4.173-20.055h-6.554z" fill="url(#paint0_linear)"/><path d="M46.377 51.32l5.14-25.15h7.592l-1.91 9.383h7.156l1.91-9.383h7.592l-5.14 25.15h-7.592l2.122-10.25h-7.156L53.97 51.32h-7.592z" fill="url(#paint1_linear)"/><path d="M71.794 51.32l5.07-25.15h10.574l1.131 16.67 8.158-16.67h10.339l-5.104 25.15h-6.296l3.773-18.204-9.514 18.204H83.23l-1.85-18.133-3.55 18.133h-6.035z" fill="url(#paint2_linear)"/><path d="M104.932 51.32l5.152-25.15h7.509l-5.151 25.15h-7.51zm10.398-13.46l8.582-11.679h7.946l-9.561 11.55 5.423 13.601h-8.075l-4.315-13.471z" fill="url(#paint3_linear)"/><path d="M20.123 56.908h2.016v.34h-.801v2.12h-.413v-2.12h-.802v-.34zm2.417 3.397v-3.397h.378v.316a.861.861 0 01.306-.28.894.894 0 01.413-.095.966.966 0 01.92.621c.082.2.117.41.117.645 0 .257-.047.48-.141.679a1.12 1.12 0 01-.401.469 1.045 1.045 0 01-.543.164.941.941 0 01-.377-.082.836.836 0 01-.27-.223v1.195h-.402v-.012zm.378-2.155c0 .316.059.55.188.703.13.152.283.222.472.222.188 0 .342-.082.483-.234.13-.152.2-.398.2-.726 0-.317-.07-.551-.2-.703-.13-.153-.283-.235-.46-.235a.594.594 0 00-.471.246c-.142.164-.212.41-.212.727zm3.89.913a1.753 1.753 0 01-.448.282 1.187 1.187 0 01-.46.082c-.271 0-.483-.07-.625-.2a.671.671 0 01-.224-.503c0-.117.024-.235.083-.328a.689.689 0 01.212-.235c.094-.058.189-.105.306-.14.083-.024.213-.047.378-.059.342-.035.59-.093.742-.14v-.106c0-.175-.035-.293-.117-.363-.107-.094-.272-.14-.472-.14-.2 0-.342.035-.436.105-.095.07-.165.187-.212.363l-.413-.058a.874.874 0 01.189-.422.836.836 0 01.365-.246 1.69 1.69 0 01.566-.082c.212 0 .377.023.519.07.13.047.224.117.294.188.06.07.107.164.13.28.012.071.024.2.024.387v.55c0 .387.011.633.023.739a.684.684 0 00.106.293h-.436a.758.758 0 01-.094-.317zm-.036-.937a2.853 2.853 0 01-.683.153c-.177.023-.295.046-.366.082a.392.392 0 00-.165.14.393.393 0 00-.059.2.39.39 0 00.13.28c.082.07.212.106.377.106a.89.89 0 00.436-.106.597.597 0 00.271-.292c.048-.094.071-.235.071-.422v-.14h-.012zm1.073-1.218h.425v1.02h1.167v-1.02h.424v2.46h-.424v-1.09H28.27v1.09h-.425v-2.46zm4.256 1.558l.413.059a1.14 1.14 0 01-.342.667c-.189.164-.413.235-.684.235-.342 0-.613-.106-.813-.328-.2-.223-.307-.54-.307-.95 0-.269.047-.491.13-.702a.93.93 0 01.4-.445 1.26 1.26 0 01.59-.153c.271 0 .483.07.66.2a.97.97 0 01.33.574l-.412.058a.623.623 0 00-.213-.375.524.524 0 00-.353-.129c-.212 0-.39.07-.519.223-.13.152-.2.387-.2.715 0 .328.059.574.188.714.13.152.295.223.495.223a.562.562 0 00.413-.153c.118-.07.189-.222.224-.433zm.766-1.558h.425v1.02h1.167v-1.02h.424v2.46h-.424v-1.09h-1.167v1.09h-.425v-2.46zm4.256 2.155a1.753 1.753 0 01-.448.282 1.189 1.189 0 01-.46.082c-.27 0-.483-.07-.625-.2a.656.656 0 01-.224-.515c0-.117.024-.234.083-.328a.689.689 0 01.212-.234c.094-.059.189-.106.307-.14.082-.024.212-.048.377-.06.342-.035.59-.093.743-.14v-.105c0-.176-.036-.293-.118-.364-.106-.093-.271-.14-.484-.14-.2 0-.341.035-.436.105-.094.07-.165.188-.212.363l-.413-.058a.875.875 0 01.189-.422.838.838 0 01.366-.246c.165-.058.353-.082.565-.082.212 0 .39.024.519.07.13.047.224.118.295.188.059.07.106.164.13.281.011.07.023.2.023.387v.55c0 .387.012.633.024.738.011.106.047.2.106.293h-.437a.832.832 0 01-.082-.305zm-.035-.937a2.853 2.853 0 01-.684.153c-.177.023-.295.046-.366.082a.391.391 0 00-.165.14.393.393 0 00-.059.2c0 .105.048.198.13.28.083.07.212.106.377.106a.89.89 0 00.437-.106.621.621 0 00.282-.292c.048-.094.071-.235.071-.422v-.14h-.023zm1.084-1.218h.425v2.12h1.155v-2.12h.424v2.12h.271v1.043h-.341v-.703h-1.922v-2.46h-.012zm2.723 0h.425v1.874l1.167-1.874h.448v2.46h-.425v-1.863l-1.167 1.863h-.448v-2.46zm2.512 1.23c0-.457.13-.797.377-1.007.212-.188.471-.27.778-.27.342 0 .613.117.837.328.212.223.318.527.318.914 0 .316-.047.562-.141.75a1.092 1.092 0 01-.413.421 1.148 1.148 0 01-.601.153c-.342 0-.625-.106-.837-.328-.212-.235-.319-.551-.319-.961zm.436 0c0 .316.07.55.212.703a.693.693 0 001.037 0c.142-.152.212-.398.212-.715 0-.304-.07-.539-.212-.69a.675.675 0 00-.518-.235.658.658 0 00-.52.234c-.152.152-.211.387-.211.703zm2.381-1.23h.424v1.02h1.167v-1.02h.425v2.46h-.425v-1.09h-1.167v1.09h-.424v-2.46zm4.244 2.155a1.753 1.753 0 01-.448.282 1.187 1.187 0 01-.46.082c-.27 0-.483-.07-.625-.2a.671.671 0 01-.224-.503c0-.117.024-.235.083-.328a.69.69 0 01.212-.235c.094-.058.189-.105.307-.14.082-.024.212-.047.377-.059.342-.035.59-.093.743-.14v-.106c0-.175-.036-.293-.118-.363-.106-.094-.271-.14-.484-.14-.2 0-.342.035-.436.105-.094.07-.165.187-.212.363l-.413-.058a.874.874 0 01.189-.422.837.837 0 01.365-.246c.166-.059.354-.082.566-.082.212 0 .39.023.519.07a.79.79 0 01.295.188c.059.07.106.164.13.28.011.071.023.2.023.387v.55c0 .387.012.633.024.739a.671.671 0 00.106.293h-.437c-.035-.106-.07-.2-.082-.317zm-.035-.937a2.854 2.854 0 01-.684.153c-.177.023-.295.046-.366.082a.392.392 0 00-.165.14.394.394 0 00-.059.2c0 .105.048.198.13.28.083.07.212.106.377.106a.89.89 0 00.437-.106.62.62 0 00.282-.292c.048-.094.071-.235.071-.422v-.14h-.023zm1.285-1.218h1.945v2.46h-.413v-2.12h-1.108v1.23c0 .28-.012.468-.024.562a.348.348 0 01-.153.234c-.082.07-.2.106-.365.106-.095 0-.212-.012-.342-.024v-.351h.188a.672.672 0 00.19-.024.159.159 0 00.07-.082c.012-.035.023-.164.023-.374v-1.617h-.011zm2.57 0h.424v.96h.53c.342 0 .614.07.802.2a.632.632 0 01.283.55.687.687 0 01-.236.527c-.153.141-.4.223-.754.223h-1.05v-2.46zm.424 2.109h.436c.271 0 .46-.036.566-.094.118-.07.165-.164.165-.305a.388.388 0 00-.13-.28c-.082-.083-.27-.13-.554-.13H54.7v.809h.012zm2.075-2.109h.424v1.02h1.167v-1.02h.425v2.46h-.425v-1.09h-1.167v1.09h-.424v-2.46zm4.243 2.155a1.753 1.753 0 01-.447.282 1.187 1.187 0 01-.46.082c-.271 0-.483-.07-.625-.2a.671.671 0 01-.224-.503c0-.117.024-.235.083-.328a.689.689 0 01.212-.235c.094-.058.188-.105.306-.14.083-.024.213-.047.378-.059.341-.035.59-.093.742-.14v-.106c0-.175-.035-.293-.118-.363-.106-.094-.27-.14-.483-.14-.2 0-.342.035-.436.105-.094.07-.165.187-.212.363l-.413-.058a.874.874 0 01.189-.422.837.837 0 01.365-.246 1.69 1.69 0 01.566-.082c.212 0 .39.023.519.07.13.047.224.117.294.188.06.07.107.164.13.28.012.071.024.2.024.387v.55c0 .387.011.633.023.739a.684.684 0 00.106.293h-.436c-.035-.106-.07-.2-.082-.317zm-.035-.937a2.853 2.853 0 01-.683.153c-.177.023-.295.046-.366.082a.392.392 0 00-.165.14.393.393 0 00-.059.2.39.39 0 00.13.28c.082.07.212.106.377.106a.89.89 0 00.436-.106.621.621 0 00.283-.292c.047-.094.07-.235.07-.422v-.14h-.023zm3.03-1.218v2.46h-.413v-.96h-.247a.753.753 0 00-.33.058c-.07.035-.177.164-.318.363l-.366.539h-.519l.448-.668c.142-.199.271-.316.413-.34-.236-.035-.413-.117-.53-.257a.734.734 0 01-.177-.48c0-.211.07-.387.224-.516.153-.129.365-.199.66-.199h1.155zm-.424.34h-.602c-.247 0-.412.035-.483.117a.39.39 0 00-.106.27c0 .152.059.257.165.327.106.07.295.106.566.106h.46v-.82zm2.393-.34h.648l.649 1.968.719-1.968h.601v2.46h-.424v-1.98l-.731 1.98h-.377l-.696-2.073v2.073h-.413v-2.46h.024zm4.975 1.663l.436.059c-.07.258-.2.445-.377.586-.189.14-.425.21-.708.21-.365 0-.648-.105-.86-.327-.212-.223-.319-.528-.319-.938 0-.41.107-.738.319-.96.212-.223.495-.34.837-.34.33 0 .601.117.813.34.212.222.319.539.319.949v.117h-1.851c.011.27.094.48.235.62a.697.697 0 00.52.212.614.614 0 00.388-.118 1.36 1.36 0 00.248-.41zm-1.38-.667h1.38c-.024-.211-.071-.363-.153-.469a.633.633 0 00-.52-.246.66.66 0 00-.483.188.75.75 0 00-.224.527zm1.946-.996h2.016v.34h-.802v2.12h-.413v-2.12h-.801v-.34zm3.985 2.155a1.752 1.752 0 01-.449.282 1.187 1.187 0 01-.46.082c-.27 0-.483-.07-.624-.2a.671.671 0 01-.224-.503c0-.117.023-.235.082-.328a.69.69 0 01.212-.235 1.25 1.25 0 01.307-.14c.082-.024.212-.047.377-.059.342-.035.59-.093.743-.14v-.106c0-.175-.035-.293-.118-.363-.106-.094-.271-.14-.483-.14-.2 0-.342.035-.437.105-.094.07-.165.187-.212.363l-.412-.058a.874.874 0 01.188-.422.837.837 0 01.366-.246c.165-.059.353-.082.566-.082.212 0 .389.023.518.07a.79.79 0 01.295.188c.059.07.106.164.13.28.011.071.023.2.023.387v.55c0 .387.012.633.024.739a.684.684 0 00.106.293h-.436a.964.964 0 01-.083-.317zm-.036-.937a2.855 2.855 0 01-.684.153c-.177.023-.295.046-.365.082a.391.391 0 00-.165.14.393.393 0 00-.06.2c0 .105.048.198.13.28.083.07.212.106.378.106a.89.89 0 00.436-.106.62.62 0 00.283-.292c.047-.094.07-.235.07-.422v-.14h-.023zm1.273-1.218h1.945v2.46h-.412v-2.12h-1.11v1.23c0 .28-.011.468-.023.562a.347.347 0 01-.153.234c-.083.07-.2.106-.366.106-.094 0-.212-.012-.342-.024v-.351h.189a.672.672 0 00.189-.024c.035-.023.059-.046.07-.082a1.78 1.78 0 00.024-.374v-1.617h-.012zm2.783 0h1.944v2.46h-.412v-2.12h-1.108v1.23c0 .28-.012.468-.024.562a.394.394 0 01-.153.234c-.083.07-.2.106-.366.106-.094 0-.212-.012-.342-.024v-.351h.19a.672.672 0 00.188-.024c.035-.023.059-.046.07-.082a1.78 1.78 0 00.024-.374v-1.617h-.012zm2.57 3.409l-.048-.387c.094.024.177.035.236.035a.424.424 0 00.224-.046.374.374 0 00.141-.13 2.37 2.37 0 00.13-.304.54.54 0 00.035-.105l-.943-2.46h.448l.519 1.429c.07.176.13.375.177.574.047-.188.106-.375.177-.562l.53-1.43h.424l-.943 2.507c-.106.27-.176.457-.235.563a.847.847 0 01-.26.304.647.647 0 01-.342.094 1.817 1.817 0 00-.27-.082zm2.345-.012v-3.397h.377v.316a.862.862 0 01.307-.28.893.893 0 01.413-.095.965.965 0 01.92.621c.082.2.129.41.129.645 0 .257-.047.48-.142.679a1.045 1.045 0 01-.943.633.987.987 0 01-.377-.082.837.837 0 01-.271-.223v1.195h-.413v-.012zm.39-2.155c0 .316.058.55.188.703.13.152.283.222.471.222.189 0 .342-.082.484-.234.13-.152.2-.398.2-.726 0-.317-.059-.551-.189-.703-.13-.153-.282-.235-.46-.235a.594.594 0 00-.47.246c-.166.164-.225.41-.225.727zm2.275-1.242h1.426v.34h-1.002v2.12h-.425v-2.46zm1.732 0h.425v1.874l1.167-1.874h.448v2.46h-.424v-1.863L89.3 59.368h-.448v-2.46zm2.511 0h.425v.469c0 .199.012.351.035.433.024.094.083.164.177.234.094.07.212.106.342.106.153 0 .365-.047.613-.13v-1.112h.424v2.46h-.424v-.996a2.36 2.36 0 01-.72.117.876.876 0 01-.494-.14.77.77 0 01-.295-.352 1.43 1.43 0 01-.083-.456v-.633zm4.339 1.663l.436.059c-.07.258-.2.445-.377.586-.189.14-.425.21-.708.21-.365 0-.648-.105-.86-.327-.212-.223-.319-.528-.319-.938 0-.41.107-.738.319-.96.212-.223.495-.34.837-.34.33 0 .6.117.813.34.212.222.318.539.318.949v.117h-1.85c.011.27.094.48.235.62a.697.697 0 00.52.212.614.614 0 00.388-.118c.106-.105.189-.234.248-.41zm-1.38-.667h1.38c-.024-.211-.071-.363-.154-.469a.633.633 0 00-.518-.246.66.66 0 00-.484.188c-.13.14-.2.304-.224.527zm3.962.562l.412.059a1.14 1.14 0 01-.342.667c-.188.164-.412.235-.683.235-.342 0-.614-.106-.814-.328-.2-.223-.306-.54-.306-.95 0-.269.047-.491.13-.702a.93.93 0 01.4-.445 1.26 1.26 0 01.59-.153c.27 0 .483.07.66.2a.97.97 0 01.33.574l-.413.058a.623.623 0 00-.212-.375.524.524 0 00-.354-.129.644.644 0 00-.518.223c-.13.152-.2.387-.2.715 0 .328.058.574.188.714.13.152.294.223.495.223a.562.562 0 00.412-.153c.118-.07.19-.222.225-.433zm.766-1.558h.424v1.066c.13 0 .224-.023.283-.082.059-.047.13-.2.236-.445.082-.2.153-.328.2-.387a.384.384 0 01.177-.129c.071-.023.177-.035.318-.035h.083v.34h-.118c-.106 0-.177.012-.212.047-.036.035-.083.14-.153.304-.059.164-.118.27-.177.328a.6.6 0 01-.248.164c.177.047.354.211.531.504l.459.762h-.459l-.448-.762a1.301 1.301 0 00-.236-.304.437.437 0 00-.248-.07v1.136h-.424v-2.437h.012zm3.807 2.155a1.752 1.752 0 01-.447.282 1.19 1.19 0 01-.46.082c-.271 0-.484-.07-.625-.2a.67.67 0 01-.224-.503c0-.117.024-.235.082-.328a.687.687 0 01.213-.235c.094-.058.188-.105.306-.14.083-.024.212-.047.377-.059a3.96 3.96 0 00.743-.14v-.106c0-.175-.035-.293-.118-.363-.106-.094-.271-.14-.483-.14-.201 0-.342.035-.436.105-.095.07-.165.187-.212.363l-.413-.058a.865.865 0 01.189-.422.833.833 0 01.365-.246c.165-.059.354-.082.566-.082.212 0 .389.023.519.07a.791.791 0 01.294.188c.059.07.106.164.13.28.012.071.024.2.024.387v.55c0 .387.011.633.023.739a.68.68 0 00.106.293h-.436c-.035-.106-.071-.2-.083-.317zm-.035-.937a2.848 2.848 0 01-.684.153c-.176.023-.294.046-.365.082a.387.387 0 00-.165.14.397.397 0 00-.059.2.39.39 0 00.13.28c.082.07.212.106.377.106a.89.89 0 00.436-.106.62.62 0 00.283-.292c.047-.094.071-.235.071-.422v-.14h-.024zm3.03-1.218v2.46h-.413v-.96h-.247a.748.748 0 00-.33.058c-.071.035-.177.164-.319.363l-.365.539h-.519l.448-.668c.142-.199.271-.316.413-.34-.236-.035-.413-.117-.531-.257a.734.734 0 01-.177-.48.64.64 0 01.224-.516c.154-.129.366-.199.661-.199h1.155zm-.424.34h-.602c-.247 0-.412.035-.483.117a.388.388 0 00-.106.27c0 .152.059.257.165.327.106.07.295.106.566.106h.46v-.82zm2.381-.34h.424v1.066c.13 0 .224-.023.283-.082.059-.047.13-.2.236-.445.082-.2.153-.328.2-.387a.39.39 0 01.177-.129c.071-.023.177-.035.318-.035h.083v.34h-.118c-.106 0-.177.012-.212.047s-.083.14-.153.304c-.059.164-.118.27-.177.328a.6.6 0 01-.248.164c.177.047.354.211.531.504l.46.762h-.448l-.448-.762a1.32 1.32 0 00-.236-.304.438.438 0 00-.248-.07v1.136h-.424v-2.437zm1.992 1.23c0-.457.13-.797.377-1.007.213-.188.472-.27.778-.27.342 0 .613.117.837.328.213.223.319.527.319.914 0 .316-.047.562-.142.75a1.088 1.088 0 01-.412.421 1.151 1.151 0 01-.602.153c-.341 0-.624-.106-.837-.328-.212-.235-.318-.551-.318-.961zm.425 0c0 .316.07.55.212.703a.691.691 0 001.037 0c.142-.152.212-.398.212-.715 0-.304-.07-.539-.212-.69a.674.674 0 00-.519-.235.655.655 0 00-.518.234c-.142.152-.212.387-.212.703zm2.393-1.23h.648l.648 1.968.72-1.968h.601v2.46h-.425v-1.98l-.731 1.98h-.377l-.695-2.073v2.073h-.413v-2.46h.024zm3.277 0h1.957v2.46h-.424v-2.12h-1.109v2.12h-.424v-2.46zm4.197 2.155a1.774 1.774 0 01-.448.282 1.19 1.19 0 01-.46.082c-.271 0-.483-.07-.625-.2a.673.673 0 01-.224-.503c0-.117.024-.235.083-.328a.684.684 0 01.212-.235 1.23 1.23 0 01.306-.14 1.97 1.97 0 01.378-.059c.342-.035.589-.093.742-.14v-.106c0-.175-.035-.293-.118-.363-.106-.094-.271-.14-.483-.14-.2 0-.342.035-.436.105-.094.07-.165.187-.212.363l-.413-.058a.865.865 0 01.189-.422.833.833 0 01.365-.246c.165-.059.354-.082.566-.082.212 0 .389.023.519.07a.791.791 0 01.294.188c.059.07.107.164.13.28.012.071.024.2.024.387v.55c0 .387.012.633.023.739a.68.68 0 00.106.293h-.436c-.035-.106-.07-.2-.082-.317zm-.036-.937a2.85 2.85 0 01-.683.153c-.177.023-.295.046-.366.082a.387.387 0 00-.165.14.397.397 0 00-.059.2.39.39 0 00.13.28c.082.07.212.106.377.106a.887.887 0 00.436-.106.62.62 0 00.283-.292c.047-.094.071-.235.071-.422v-.14h-.024zm1.085-1.218h.424v1.02h1.167v-1.02h.425v2.46h-.425v-1.09h-1.167v1.09h-.424v-2.46zm2.629 0h.424v1.874l1.167-1.874h.448v2.46h-.424v-1.863l-1.167 1.863h-.448v-2.46zm4.609 0v2.46h-.412v-.96h-.248a.754.754 0 00-.33.058c-.071.035-.177.164-.318.363l-.366.539h-.518l.448-.668c.141-.199.271-.316.412-.34-.236-.035-.412-.117-.53-.257a.734.734 0 01-.177-.48.64.64 0 01.224-.516c.153-.129.365-.199.66-.199h1.155zm-.412.34h-.601c-.248 0-.413.035-.484.117a.388.388 0 00-.106.27c0 .152.059.257.165.327.106.07.295.106.566.106h.46v-.82z" fill="#fff"/><defs><linearGradient id="paint0_linear" x1="39.272" y1="51.326" x2="39.272" y2="26.179" gradientUnits="userSpaceOnUse"><stop stop-color="#C1BEBF"/><stop offset=".85" stop-color="#fff"/></linearGradient><linearGradient id="paint1_linear" x1="60.117" y1="51.326" x2="60.117" y2="26.179" gradientUnits="userSpaceOnUse"><stop stop-color="#C1BEBF"/><stop offset=".85" stop-color="#fff"/></linearGradient><linearGradient id="paint2_linear" x1="89.428" y1="51.326" x2="89.428" y2="26.178" gradientUnits="userSpaceOnUse"><stop stop-color="#C1BEBF"/><stop offset=".85" stop-color="#fff"/></linearGradient><linearGradient id="paint3_linear" x1="118.392" y1="51.325" x2="118.392" y2="26.179" gradientUnits="userSpaceOnUse"><stop stop-color="#C1BEBF"/><stop offset=".85" stop-color="#fff"/></linearGradient></defs></svg>