<svg width="158" height="66" fill="none" xmlns="http://www.w3.org/2000/svg"><path d="M50.71 13.7h11.01V0h-32.5v10.2h21.49v3.5z" fill="#303956"/><path d="M73.93 41.17V21.38h4.61V14.7H49.71v-3.5H20v23.65l1.48 6.32h52.45z" fill="#303956"/><path d="M149.16 43.54l8.39-16.56h-47.22l-7.51 9.65-1 1.28-3.3 4.25H20.69L20 39.23l-.5-2.14-1.25-5.33H0l7.96 33.97h129.97l3.98-7.86h-25.68v-5.63h28.53l1.56-3.07h-30.09v-5.63h32.93zM35.79 44.65a3.16 3.16 0 11-3.16 3.16c.01-1.74 1.42-3.16 3.16-3.16zm-9.72 0a3.16 3.16 0 110 6.32 3.16 3.16 0 010-6.32zm-9.73 6.31a3.16 3.16 0 010-6.32 3.166 3.166 0 013.16 3.15c0 .62-.19 1.2-.5 1.69-.56.9-1.54 1.48-2.66 1.48z" fill="#303956"/><path d="M90.89 24.25H76.64v16.92h21.39l3.79-4.88V24.25h-6.23V7.5h17.23v17.02h1.1V7.5h1.37l4.16-1.81-4.16-1.81H76.14V7.5h14.75v16.75z" fill="#303956"/></svg>