<svg width="149" height="47" fill="none" xmlns="http://www.w3.org/2000/svg"><path d="M38.99 16.86l4.19-3.13h-9.95l-4.34 2.09 1.85 1.85c.95-.1 3.94-.4 8.25-.81zm74.64-4.7c1.67.07 3.04.19 4.07.37a2.295 2.295 0 00-2.05-1.88l-2.02 1.51zm-23.09.59c.04 0 .08 0 .12-.01.07 0 .14-.01.21-.01.06 0 .13-.01.19-.01 8.29-.47 15.73-.73 20.95-.61l7.22-5.39H97.67l-13.34 6.41c1.92-.13 3.82-.24 5.68-.35l.53-.03z" fill="#303956"/><path d="M147.76 31.39c-.75-.99-2.86-3.1-6.35-5.83-.3.04-.62.09-.94.12-.07.01-.14.02-.21.02-.39.04-.78.09-1.19.12-.05 0-.1.01-.14.01-.4.04-.81.07-1.24.1-.04 0-.09.01-.13.01-.43.03-.86.05-1.3.07-.09 0-.19.01-.28.01-.42.02-.85.04-1.28.05-.11 0-.22.01-.33.01l-1.29.03c-.1 0-.2 0-.31.01-.37.01-.73.01-1.1.02h-.36c-.4 0-.8.01-1.2.01h-1.49c-4.89-.03-8.92-.25-9-.25l-.19-.01-4.5-4.39-.06-.06h.09l1.1-.02c.36-.01.73-.02 1.11-.04.13-.01.25-.01.38-.02.25-.01.5-.03.76-.05.15-.01.31-.02.47-.04l.7-.06c.17-.01.33-.03.5-.05.23-.02.47-.05.7-.07l.5-.06.71-.09.49-.06c.25-.03.5-.07.75-.1l.44-.06.98-.15c.08-.01.16-.02.24-.04.36-.06.73-.11 1.08-.17.14-.02.27-.05.41-.07l.71-.12c.15-.03.3-.05.45-.08.22-.04.43-.08.64-.11.14-.03.28-.05.41-.08.21-.04.42-.08.62-.12.13-.02.25-.05.37-.07a69.948 69.948 0 00.91-.18c.23-.04.45-.09.66-.13.06-.01.13-.03.19-.04.27-.06.53-.11.78-.16-4.75-2.72-9.3-4.59-13.3-5.48a8.84 8.84 0 00-.5-.1c-.17-.03-.34-.07-.5-.1l-.16-.03c-.96-.17-2.25-.28-3.82-.35-.45-.02-.92-.04-1.41-.05-.26-.01-.54-.01-.81-.02-.27 0-.54-.01-.82-.01-2.53-.02-5.51.03-8.8.14-3.3.11-6.91.29-10.7.5-.11.01-.22.01-.34.02l-.5.03c-.04 0-.08 0-.12.01-.13.01-.25.01-.38.02-.39.02-.78.05-1.17.07-.28.02-.56.03-.84.05-1.96.12-3.97.25-5.99.39l-1.35.09-1.3.09c-14.93 1.05-30.48 2.45-39.86 3.34l-.96.09-.96.09c-4.16.4-6.71.65-6.85.67l-.24.02L13.81 2.14.55 0l11.02 21.66L.98 26.24c1.63.63 4.83 1.85 8.4 3.19l5.04-3.76 19.57-.6-15.6 7.49h-.49c1.67.59 3.21 1.13 4.48 1.54 3.03.99 15.61 1.93 30.93 2.74l7-5.23 36.65-1.13-3.81 1.83h1.58c1.82 0 3.3 1.48 3.3 3.3v3.11c8.33.29 15.48.51 20.17.65 23.51.69 28.89-2.83 30-4.99.62-1.17.1-2.27-.44-2.99z" fill="#303956"/><path d="M131.39 20.4c-.07.01-.15.03-.23.05-.19.04-.38.08-.59.12l-.33.06c-.19.04-.38.07-.58.11-.13.02-.26.05-.4.08-.19.04-.38.07-.57.11-.15.03-.31.06-.46.08-.19.03-.38.07-.57.1l-.51.09c-.19.03-.38.07-.57.1l-.57.09-.55.09c-.2.03-.41.06-.62.1-.18.03-.36.06-.54.08l-.66.09c-.17.02-.34.05-.51.07l-.7.09-.49.06c-.24.03-.49.06-.73.08-.15.02-.31.04-.46.05-.26.03-.51.05-.77.08-.14.01-.28.03-.41.04-.28.03-.55.05-.83.07l-.34.03c-.38.03-.77.05-1.14.07l2.59 2.53c.14.01.35.02.62.03h.1c.09 0 .18.01.28.01h.05c.11 0 .24.01.36.01h.03c.12 0 .25.01.39.02h.06c.12 0 .25.01.37.01.05 0 .1 0 .16.01.1 0 .2.01.31.01.08 0 .16.01.25.01.11 0 .22.01.33.01.08 0 .17.01.25.01.11 0 .22.01.33.01.1 0 .21.01.32.01.1 0 .2.01.31.01.13 0 .25.01.38.01.09 0 .18 0 .27.01.14 0 .29.01.44.01.09 0 .18 0 .27.01.15 0 .3.01.45.01.09 0 .18 0 .27.01.16 0 .33.01.5.01h.24c.19 0 .39.01.59.01h.18c1.05.01 2.15.01 3.26 0h.08c.25 0 .51 0 .76-.01h.11c.24 0 .48-.01.71-.01h.19c.21 0 .41-.01.62-.01.08 0 .17 0 .25-.01.2-.01.39-.01.59-.02.08 0 .16-.01.24-.01.19-.01.38-.01.57-.02.09 0 .18-.01.26-.01.18-.01.35-.02.53-.02.1 0 .19-.01.29-.01l.51-.03c.09-.01.19-.01.28-.02l.51-.03c.09-.01.18-.01.27-.02.16-.01.33-.02.49-.04.09-.01.18-.01.27-.02.16-.01.31-.03.46-.04l.27-.03c.15-.02.3-.03.44-.05l.26-.03c.03 0 .07-.01.1-.01-2.24-1.69-4.63-3.3-6.97-4.71-.34.07-.75.16-1.22.25-.02 0-.05.01-.07.01-.19.05-.4.09-.63.14zM94.74 33.31h-3.66l-7.64 3.67h5.49c1.16 0 2.18.61 2.77 1.52.11.16.2.33.28.51.07.16.12.33.16.51.06.25.1.5.1.76v1.16l2.3.2c.65.06 1.27-.15 1.76-.59.4-.36.64-.84.71-1.36.02-.11.03-.22.03-.34v-3.74a2.3 2.3 0 00-2.3-2.3z" fill="#303956"/><path d="M90.82 38.97c-.14-.2-.32-.37-.51-.52a2.26 2.26 0 00-1.37-.46h-7.57l-.24.12-1.94.94L77 40.1l-1.76.84L68 44.42h-.66l21.41 1.9c.65.06 1.27-.15 1.76-.59.48-.44.75-1.04.75-1.7v-3.74c0-.28-.06-.55-.15-.8-.1-.19-.18-.37-.29-.52zm-17.55 1.78l.89-.42.88-.42 2.01-.97.96-.46.97-.47.07-.03 11.8-5.67 1.43-.68-31.61.97-6.42 4.79-.64.48-7.41 5.54h21.55l5.52-2.66zM29.29 26.21l-14.52.45-4.28 3.19-.47.36-.48.35-1.33 1h9.95l11.13-5.35z" fill="#303956"/></svg>