<svg width="125" height="59" fill="none" xmlns="http://www.w3.org/2000/svg"><path d="M104.25 41.03a5.62 5.62 0 00-5.61 5.61c0 .61.1 1.21.31 1.81a5.612 5.612 0 005.3 3.81c2.4 0 4.54-1.53 5.31-3.81.2-.59.31-1.2.31-1.81 0-3.09-2.52-5.61-5.62-5.61zm-80.06 0a5.62 5.62 0 00-5.61 5.61 5.615 5.615 0 005.61 5.62c2.4 0 4.53-1.53 5.3-3.81.2-.59.31-1.2.31-1.81a5.62 5.62 0 00-5.61-5.61z" fill="#303956"/><path d="M124.58 27.87v-9.29L106.77 4.06H88.91V32.9h-3.29V0H0v33.09h5.61v6.07H0v9.61h11.77c-.12-.71-.19-1.42-.19-2.13 0-2.57.78-5.05 2.25-7.18.25-.35.48-.66.73-.94a12.592 12.592 0 0119.99.95c1.47 2.13 2.25 4.61 2.25 7.18 0 .71-.07 1.43-.19 2.13h55.23c-.12-.76-.19-1.46-.19-2.13 0-2.57.78-5.05 2.25-7.18.25-.35.51-.68.73-.94a12.592 12.592 0 0119.28.02c.24.3.48.61.71.93 1.48 2.12 2.26 4.6 2.26 7.18 0 .69-.07 1.39-.2 2.13h7.91v-15.7h-5.04v-5.22h5.03zm-7.47 2.97H92.64v-5.68h24.46v5.68h.01zM92.64 20.26V9.29h13.83l10.64 10.97H92.64z" fill="#303956"/><path d="M100.4 26.9h-6.73v2.13h6.73V26.9zM33.06 39.16c-2.13-2.52-5.31-4.13-8.87-4.13-3.56 0-6.74 1.61-8.87 4.13a11.572 11.572 0 00-2.54 9.61c1 5.4 5.72 9.49 11.41 9.49 5.68 0 10.41-4.09 11.41-9.49a11.572 11.572 0 00-2.54-9.61zm-2.62 9.61a6.603 6.603 0 01-6.25 4.49c-2.9 0-5.37-1.88-6.26-4.49-.22-.67-.35-1.38-.35-2.13 0-3.64 2.96-6.61 6.61-6.61 3.65 0 6.61 2.97 6.61 6.61 0 .75-.13 1.46-.36 2.13zm82.69-9.61a11.608 11.608 0 00-8.88-4.13c-3.56 0-6.74 1.61-8.87 4.13-.23.28-.46.57-.67.87-1.3 1.88-2.07 4.15-2.07 6.61 0 .73.08 1.44.2 2.13 1.01 5.4 5.73 9.49 11.41 9.49 5.69 0 10.41-4.09 11.41-9.49.13-.69.21-1.4.21-2.13 0-2.46-.77-4.73-2.08-6.61-.21-.3-.43-.59-.66-.87zm-2.62 9.61c-.89 2.61-3.36 4.49-6.26 4.49s-5.36-1.88-6.25-4.49c-.23-.67-.36-1.38-.36-2.13 0-3.64 2.97-6.61 6.61-6.61 3.65 0 6.62 2.97 6.62 6.61 0 .75-.13 1.46-.36 2.13z" fill="#303956"/></svg>