<svg width="166" height="52" fill="none" xmlns="http://www.w3.org/2000/svg"><path d="M0 35.59h14.62v2.48h-1.79v4.14h9.52v1.38h4.83v-4.83h10.9v2.93a6.02 6.02 0 012.19 4.65c0 .09-.01.18-.01.28h8.61c0-.09-.01-.18-.01-.28 0-2.29 1.28-4.28 3.16-5.31v-2.27H62.5v4.83h4.83v-8h3.86V0H0v35.59zm10.81-2.58H9.34V14.44h1.47v18.57zm6.31 0h-1.47V14.44h1.47v18.57zm6.31 0h-1.47V14.44h1.47v18.57zm6.31 0h-1.47V14.44h1.47v18.57zm6.31 0h-1.47V14.44h1.47v18.57zm6.3 0h-1.47V14.44h1.47v18.57zm6.31 0h-1.47V14.44h1.47v18.57zm6.31 0H53.5V14.44h1.47v18.57zm6.31 0h-1.47V14.44h1.47v18.57zm6.3 0h-1.47V14.44h1.47v18.57zM3.03 4.69h64.29v6.62H3.03V4.69zm0 9.75H4.5v18.57H3.03V14.44z" fill="#303956"/><path d="M34.21 41.36c-2.75 0-4.98 2.24-4.98 4.98s2.24 4.98 4.98 4.98c2.65 0 4.81-2.09 4.95-4.71.01-.09.03-.18.03-.28 0-1.18-.43-2.25-1.12-3.11-.92-1.12-2.3-1.86-3.86-1.86zm0 7.65c-1.47 0-2.67-1.2-2.67-2.67s1.2-2.67 2.67-2.67 2.67 1.2 2.67 2.67c-.01 1.47-1.2 2.67-2.67 2.67zm20.69-7.65c-1.08 0-2.08.36-2.9.94-1.26.91-2.09 2.37-2.09 4.04 0 .09.02.18.03.28.15 2.62 2.3 4.71 4.95 4.71 2.75 0 4.98-2.24 4.98-4.98s-2.23-4.99-4.97-4.99zm0 7.65c-1.47 0-2.67-1.2-2.67-2.67s1.2-2.67 2.67-2.67 2.67 1.2 2.67 2.67c-.01 1.47-1.2 2.67-2.67 2.67zm102.2-12.18l.83-1.24h7.86V23.18L144.83.01H73.65V35.6h6.27l-.02 8h4.83v-4.83h10.9v2.93a6.02 6.02 0 012.19 4.65c0 .09-.01.18-.01.28h8.61c0-.09-.01-.18-.01-.28 0-2.29 1.28-4.28 3.16-5.31v-2.27h10.48v4.83h4.83v-8h4.99l7.79 8.09h17.1l3.45-5.47h-16v-1.38h14.89v-.01zM94.43 11.31h-14.9V4.69h14.9v6.62zm19.42 0h-14.9V4.69h14.9v6.62zm19.42 0h-14.9V4.69h14.9v6.62zm2.91 16L136 9.65h8.28l14.16 17.65h-22.26v.01z" fill="#303956"/><path d="M91.77 41.36c-2.75 0-4.98 2.24-4.98 4.98s2.24 4.98 4.98 4.98c2.65 0 4.81-2.09 4.95-4.71.01-.09.03-.18.03-.28 0-1.18-.43-2.25-1.12-3.11-.91-1.12-2.3-1.86-3.86-1.86zm0 7.65c-1.47 0-2.67-1.2-2.67-2.67s1.2-2.67 2.67-2.67 2.67 1.2 2.67 2.67c-.01 1.47-1.2 2.67-2.67 2.67zm20.69-7.65c-1.08 0-2.08.36-2.9.94-1.26.91-2.09 2.37-2.09 4.04 0 .09.02.18.03.28.15 2.62 2.3 4.71 4.95 4.71 2.75 0 4.98-2.24 4.98-4.98s-2.23-4.99-4.97-4.99zm0 7.65c-1.47 0-2.67-1.2-2.67-2.67s1.2-2.67 2.67-2.67 2.67 1.2 2.67 2.67c-.01 1.47-1.2 2.67-2.67 2.67z" fill="#303956"/></svg>